# File created by Blade
# Date/Time:  Tue Sep 30 19:36:50 2014
#---------------------------------------------------------
:version 1.10
:name HOM
:units
  mass 1.0
  length 1.000000
  angle deg
:documentation
     Acclaim Skeleton File
:root
   axis xyz
   order TX TY TZ RX RY RZ
   position 0.000000 0.000000 0.000000
   orientation 0 0 0
:bonedata
   begin
      id 1
      name Spine_dum
      direction 0.000000 1.000000 0.000000
      length 3.241213
      axis 0.0 0.0 0.0 xyz
   end
   begin
      id 2
      name LeftUpLeg_dum
      direction 1.000000 0.000000 0.000000
      length 3.434019
      axis 0.0 0.0 0.0 xyz
   end
   begin
      id 3
      name RightUpLeg_dum
      direction -1.000000 0.000000 0.000000
      length 3.434019
      axis 0.0 0.0 0.0 xyz
   end
   begin
      id 4
      name Spine
      direction 0.000000 1.000000 0.000000
      length 0.000000
      axis 0.0 0.0 0.0 xyz
      dof rx ry rz
   end
   begin
      id 5
      name Spine_dum1
      direction 0.000000 1.000000 0.000000
      length 18.382958
      axis 0.0 0.0 0.0 xyz
   end
   begin
      id 6
      name Spine_dum2
      direction 0.000000 1.000000 0.000000
      length 12.828261
      axis 0.0 0.0 0.0 xyz
   end
   begin
      id 7
      name Spine_dum3
      direction 0.000000 1.000000 0.000000
      length 12.828261
      axis 0.0 0.0 0.0 xyz
   end
   begin
      id 8
      name Head
      direction 0.000000 1.000000 0.000000
      length 4.527550
      axis 0.0 0.0 0.0 xyz
      dof rx ry rz
   end
   begin
      id 9
      name LeftShoulder
      direction 1.000000 0.000000 0.000000
      length 7.748055
      axis 0.0 0.0 -90.0 xyz
      dof rx ry rz
   end
   begin
      id 10
      name LeftArm
      direction 1.000000 0.000000 0.000000
      length 10.635614
      axis 0.0 0.0 -90.0 xyz
      dof rx ry rz
   end
   begin
      id 11
      name LeftForeArm
      direction 1.000000 0.000000 0.000000
      length 8.346755
      axis 0.0 0.0 -90.0 xyz
      dof ry rz rx
   end
   begin
      id 12
      name LeftHand
      direction 0.000000 0.000000 0.000000
      length 0.000000
      axis 0.0 0.0 -90.0 xyz
      dof rx ry rz
   end
   begin
      id 13
      name LeftHand_dum1
      direction 0.000000 0.000000 0.000000
      length 0.000000
      axis 0.0 0.0 -90.0 xyz
   end
   begin
      id 14
      name LeftHand_dum2
      direction 1.000000 0.000000 0.000000
      length 3.937000
      axis 0.0 0.0 -90.0 xyz
   end
   begin
      id 15
      name LeftHandThumb1
      direction 0.000000 0.000000 1.000000
      length 3.937000
      axis 0.0 0.0 -90.0 xyz
      dof rx rz ry
   end
   begin
      id 16
      name RightShoulder
      direction -1.000000 0.000000 0.000000
      length 7.748055
      axis 0.0 0.0 90.0 xyz
      dof rx ry rz
   end
   begin
      id 17
      name RightArm
      direction -1.000000 0.000000 0.000000
      length 10.635614
      axis 0.0 0.0 90.0 xyz
      dof rx ry rz
   end
   begin
      id 18
      name RightForeArm
      direction -1.000000 0.000000 0.000000
      length 8.346755
      axis 0.0 0.0 90.0 xyz
      dof ry rz rx
   end
   begin
      id 19
      name RightHand
      direction 0.000000 0.000000 0.000000
      length 0.000000
      axis 0.0 0.0 90.0 xyz
      dof rx ry rz
   end
   begin
      id 20
      name RightHand_dum1
      direction 0.000000 0.000000 0.000000
      length 0.000000
      axis 0.0 0.0 90.0 xyz
   end
   begin
      id 21
      name RightHand_dum2
      direction -1.000000 0.000000 0.000000
      length 3.937000
      axis 0.0 0.0 90.0 xyz
   end
   begin
      id 22
      name RightHandThumb1
      direction 0.000000 0.000000 1.000000
      length 3.937000
      axis 0.0 0.0 90.0 xyz
      dof rx rz ry
   end
   begin
      id 23
      name LeftUpLeg
      direction 0.000000 -1.000000 0.000000
      length 15.713025
      axis 0.0 0.0 0.0 xyz
      dof rx ry rz
   end
   begin
      id 24
      name LeftLeg
      direction 0.000000 -1.000000 0.000000
      length 14.435119
      axis 0.0 0.0 0.0 xyz
      dof rx ry rz
   end
   begin
      id 25
      name LeftFoot
      direction 0.000000 -0.258819 0.965926
      length 4.938895
      axis 15.0 0.0 0.0 xyz
      dof rx ry rz
   end
   begin
      id 26
      name LeftToeBase
      direction 0.000000 0.000000 1.000000
      length 2.952750
      axis 0.0 0.0 0.0 xyz
      dof rx ry rz
   end
   begin
      id 27
      name RightUpLeg
      direction 0.000000 -1.000000 0.000000
      length 15.713025
      axis 0.0 0.0 0.0 xyz
      dof rx ry rz
   end
   begin
      id 28
      name RightLeg
      direction 0.000000 -1.000000 0.000000
      length 14.435119
      axis 0.0 0.0 0.0 xyz
      dof rx ry rz
   end
   begin
      id 29
      name RightFoot
      direction 0.000000 -0.258819 0.965926
      length 4.938895
      axis 15.0 0.0 0.0 xyz
      dof rx ry rz
   end
   begin
      id 30
      name RightToeBase
      direction 0.000000 0.000000 1.000000
      length 2.952750
      axis 0.0 0.0 0.0 xyz
      dof rx ry rz
   end
:hierarchy
   begin
      root Spine_dum LeftUpLeg_dum RightUpLeg_dum
      Spine_dum Spine
      LeftUpLeg_dum LeftUpLeg
      RightUpLeg_dum RightUpLeg
      Spine Spine_dum1 Spine_dum2 Spine_dum3
      Spine_dum1 Head
      Spine_dum2 LeftShoulder
      Spine_dum3 RightShoulder
      LeftShoulder LeftArm
      LeftArm LeftForeArm
      LeftForeArm LeftHand
      LeftHand LeftHand_dum1 LeftHand_dum2
      LeftHand_dum1 LeftHandThumb1
      RightShoulder RightArm
      RightArm RightForeArm
      RightForeArm RightHand
      RightHand RightHand_dum1 RightHand_dum2
      RightHand_dum1 RightHandThumb1
      LeftUpLeg LeftLeg
      LeftLeg LeftFoot
      LeftFoot LeftToeBase
      RightUpLeg RightLeg
      RightLeg RightFoot
      RightFoot RightToeBase
   end

# File created by Blade
# Date/Time:  Tue Sep 23 19:06:47 2014
# Frame Rate: 120.000 fps
#------------------------------------------------------
:FULLY-SPECIFIED
:DEGREES
314
root 1.598656 33.551539 -6.571046 34.233186 -4.285902 -42.590263
Spine -26.435478 32.363076 17.694876
Head -15.973737 -13.291978 14.172738
LeftShoulder -20.267334 26.509091 32.870939
LeftArm 51.170191 -69.944788 -32.395172
LeftForeArm 94.256259 0.000000 27.304938
LeftHand -11.900972 -0.000000 59.680247
LeftHandThumb1 -26.253704 0.000000 33.147579
RightShoulder -11.828629 2.166479 -15.833858
RightArm 112.522960 45.393541 146.154534
RightForeArm 52.289233 -0.000000 55.319030
RightHand -3.451938 0.000000 21.196526
RightHandThumb1 -24.326973 -0.000000 -32.862282
LeftUpLeg -40.604256 20.139461 34.798638
LeftLeg 35.234345 -0.000000 -0.000000
LeftFoot -24.446048 4.929736 -7.938235
LeftToeBase 1.001806 -0.000000 -0.000000
RightUpLeg -174.891225 -26.338171 48.869101
RightLeg 13.226937 -0.000000 -0.000000
RightFoot 33.230490 -15.791045 18.013211
RightToeBase 31.425644 -0.000000 -0.000000
315
root 1.608092 33.591035 -6.587106 34.487111 -4.128442 -42.996084
Spine -26.772653 32.788407 17.832139
Head -16.185436 -13.431724 14.288800
LeftShoulder -20.361426 26.304663 32.730517
LeftArm 51.117877 -70.052447 -31.496831
LeftForeArm 94.188320 -0.000000 27.320512
LeftHand -11.815334 -0.000000 59.591067
LeftHandThumb1 -26.253704 0.000000 33.147579
RightShoulder -12.057269 2.551814 -15.946532
RightArm 112.678137 45.434150 146.153838
RightForeArm 51.413250 -0.000000 55.903808
RightHand -3.645064 -0.000000 21.267063
RightHandThumb1 -24.326973 -0.000000 -32.862282
LeftUpLeg -40.734354 20.861432 34.780574
LeftLeg 34.985376 -0.000000 -0.000000
LeftFoot -24.790418 8.468765 -7.448018
LeftToeBase 1.286390 -0.000000 -0.000000
RightUpLeg -175.000607 -26.463738 49.215379
RightLeg 12.817210 -0.000000 -0.000000
RightFoot 33.190061 -15.193143 17.796578
RightToeBase 31.582481 -0.000000 -0.000000
316
root 1.616274 33.632722 -6.604668 34.896263 -3.988270 -43.369450
Spine -27.333668 33.186441 17.826988
Head -16.255054 -13.437180 14.292168
LeftShoulder -20.384498 26.188853 32.612662
LeftArm 50.665529 -70.226977 -30.143471
LeftForeArm 94.213497 -0.000000 27.150660
LeftHand -11.852888 -0.000000 59.721272
LeftHandThumb1 -26.253704 0.000000 33.147579
RightShoulder -12.195209 2.856565 -16.041090
RightArm 112.812895 45.524292 146.125132
RightForeArm 50.562141 -0.000000 56.422211
RightHand -3.722860 -0.000000 21.312253
RightHandThumb1 -24.326973 -0.000000 -32.862282
LeftUpLeg -41.030309 21.810529 34.576579
LeftLeg 34.726799 -0.000000 -0.000000
LeftFoot -25.025192 12.651183 -6.828378
LeftToeBase 1.601092 -0.000000 -0.000000
RightUpLeg -175.247232 -26.458852 49.574483
RightLeg 12.487726 -0.000000 -0.000000
RightFoot 33.204023 -14.546941 17.397168
RightToeBase 31.518322 -0.000000 -0.000000
317
root 1.620040 33.673066 -6.618562 35.282902 -3.814265 -43.703783
Spine -27.869675 33.494284 17.814353
Head -16.434759 -13.582386 14.517649
LeftShoulder -20.384493 26.027035 32.500908
LeftArm 49.722803 -70.384179 -28.310984
LeftForeArm 94.156047 -0.000000 26.984878
LeftHand -11.861818 -0.000000 59.754711
LeftHandThumb1 -26.253704 0.000000 33.147579
RightShoulder -12.346939 3.095031 -16.123520
RightArm 112.927200 45.572562 146.073211
RightForeArm 49.650880 -0.000000 56.905395
RightHand -3.724082 -0.000000 21.207297
RightHandThumb1 -24.326973 -0.000000 -32.862282
LeftUpLeg -41.380575 22.908534 34.258981
LeftLeg 34.483513 -0.000000 -0.000000
LeftFoot -25.269599 16.670779 -6.272099
LeftToeBase 2.496305 -0.000000 -0.000000
RightUpLeg -175.581051 -26.493671 49.934827
RightLeg 12.285337 -0.000000 -0.000000
RightFoot 33.158440 -14.096545 17.004569
RightToeBase 31.623977 -0.000000 -0.000000
